Coordinates
version=1
nRows=18
nColumns=63
inDegrees=yes

Units are S.I. units (second, meters, Newtons, ...)
If the header above contains a line with 'inDegrees', this indicates whether rotational values are in degrees (yes) or radians (no).

endheader
time	pelvis_tilt	pelvis_list	pelvis_rotation	pelvis_tx	pelvis_ty	pelvis_tz	hip_flexion_r	hip_adduction_r	hip_rotation_r	knee_angle_r	knee_angle_r_beta	ankle_angle_r	subtalar_angle_r	mtp_angle_r	hip_flexion_l	hip_adduction_l	hip_rotation_l	knee_angle_l	knee_angle_l_beta	ankle_angle_l	subtalar_angle_l	mtp_angle_l	L5_S1_Flex_Ext	L5_S1_Lat_Bending	L5_S1_axial_rotation	L4_L5_Flex_Ext	L4_L5_Lat_Bending	L4_L5_axial_rotation	L3_L4_Flex_Ext	L3_L4_Lat_Bending	L3_L4_axial_rotation	L2_L3_Flex_Ext	L2_L3_Lat_Bending	L2_L3_axial_rotation	L1_L2_Flex_Ext	L1_L2_Lat_Bending	L1_L2_axial_rotation	L1_T12_Flex_Ext	L1_T12_Lat_Bending	L1_T12_axial_rotation	Abs_r3	Abs_r2	Abs_r1	Abs_t1	Abs_t2	neck_flexion	neck_bending	neck_rotation	arm_flex_r	arm_add_r	arm_rot_r	elbow_flex_r	pro_sup_r	wrist_flex_r	wrist_dev_r	arm_flex_l	arm_add_l	arm_rot_l	elbow_flex_l	pro_sup_l	wrist_flex_l	wrist_dev_l
2.075000	9.571664	-10.144928	113.318966	0.182447	0.360462	0.698297	2.208995	5.548163	-12.819626	6.549955	0.114318	26.023663	0.161526	0.000000	4.960715	-8.978374	8.356629	10.870813	0.189731	36.158895	1.015069	0.000000	0.026669	1.164476	0.129525	0.049527	1.548753	0.137620	0.043815	2.831308	0.137620	0.030480	2.831308	0.113334	0.024765	2.374600	0.105239	0.015239	1.803774	0.097144	0.190495	13.172789	0.720380	0.000000	0.000000	17.721432	-3.949352	1.267060	7.465472	-17.118796	77.421867	21.207433	34.567517	-11.211941	-8.114360	44.429487	16.513124	32.835692	143.726062	86.430355	14.977841	14.023984
2.100000	9.562583	-9.983735	113.705664	0.181408	0.360601	0.698084	2.071818	5.455340	-14.778475	6.727090	0.117410	26.438317	1.712389	0.000000	4.855296	-8.965276	9.025226	10.868180	0.189686	36.117958	0.465822	0.000000	0.014896	1.178137	0.064893	0.027664	1.566922	0.068948	0.024473	2.864522	0.068948	0.017025	2.864522	0.056781	0.013833	2.402457	0.052725	0.008512	1.824934	0.048669	0.106402	13.327321	0.360914	0.000000	0.000000	17.224475	-4.087009	1.470182	7.193820	-17.151565	76.265258	21.146612	35.337415	-11.106178	-8.262432	44.190108	16.088437	32.481643	143.632993	86.408301	14.215083	14.211130
2.125000	9.544999	-9.796499	114.106036	0.180251	0.360786	0.697896	1.923230	5.332459	-17.077597	6.959219	0.121461	26.960600	3.707170	0.000000	4.715776	-8.937171	9.839599	10.849569	0.189361	36.092409	-0.231085	0.000000	0.002380	1.194520	0.009374	0.004420	1.588712	0.009960	0.003910	2.904356	0.009960	0.002720	2.904356	0.008202	0.002210	2.435865	0.007616	0.001360	1.850311	0.007030	0.017000	13.512649	0.052134	0.000000	0.000000	16.671767	-4.266646	1.629367	6.779427	-17.199951	74.375582	21.137224	36.674343	-10.996181	-8.320466	43.905553	15.615004	32.023100	143.443836	86.038749	13.578910	14.249577
2.150000	9.524856	-9.598839	114.515176	0.179056	0.361007	0.697746	1.783291	5.206324	-19.428077	7.222148	0.126050	27.528148	5.785717	0.000000	4.572483	-8.911842	10.594726	10.831765	0.189050	36.123168	-0.814206	0.000000	-0.009550	1.212283	-0.042082	-0.017736	1.612336	-0.044712	-0.015690	2.947544	-0.044712	-0.010915	2.947544	-0.036822	-0.008868	2.472087	-0.034192	-0.005457	1.877826	-0.031561	-0.068216	13.713585	-0.234047	0.000000	0.000000	16.091056	-4.448619	1.766903	6.347411	-17.241988	72.409959	21.114969	38.173065	-11.002280	-8.310248	43.584901	15.073059	31.546975	143.210298	85.608795	12.789298	14.134329
2.175000	9.501308	-9.407093	114.933725	0.177817	0.361236	0.697614	1.653269	5.082508	-21.696382	7.484952	0.130637	28.105661	7.801131	0.000000	4.442314	-8.878509	11.338881	10.822020	0.188880	36.202242	-1.307631	0.000000	-0.018668	1.230744	-0.087225	-0.034668	1.636890	-0.092677	-0.030670	2.992431	-0.092677	-0.021336	2.992431	-0.076322	-0.017335	2.509733	-0.070870	-0.010667	1.906423	-0.065419	-0.133344	13.922423	-0.485120	0.000000	0.000000	15.510842	-4.616456	1.946195	5.875259	-17.294783	70.325515	21.100731	39.784336	-11.072284	-8.319232	43.226196	14.514937	31.049005	142.950721	85.296892	11.917005	13.891511
2.200000	9.460873	-9.222468	115.344149	0.176618	0.361469	0.697431	1.502011	4.985776	-23.386968	7.684251	0.134115	28.529716	9.093248	0.000000	4.299185	-8.820478	12.159931	10.785610	0.188244	36.281966	-1.856201	0.000000	-0.025953	1.245791	-0.116685	-0.048197	1.656902	-0.123978	-0.042638	3.029016	-0.123978	-0.029661	3.029016	-0.102100	-0.024100	2.540417	-0.094807	-0.014829	1.929730	-0.087514	-0.185378	14.092635	-0.648968	0.000000	0.000000	14.963266	-4.769338	2.006516	5.288917	-17.385996	67.551015	21.108372	42.290949	-11.168647	-8.066244	42.865037	13.986169	30.564416	142.623443	84.983429	11.131532	13.547579
2.225000	9.395599	-9.063621	115.756197	0.175484	0.361716	0.697209	1.355536	4.879558	-24.849434	7.858230	0.137152	28.919073	10.170519	0.000000	4.172454	-8.737957	12.872860	10.741189	0.187469	36.379658	-2.190309	0.000000	-0.030824	1.255488	-0.139821	-0.057243	1.669799	-0.148559	-0.050640	3.052593	-0.148559	-0.035228	3.052593	-0.122343	-0.028623	2.560191	-0.113604	-0.017613	1.944751	-0.104865	-0.220171	14.202329	-0.777640	0.000000	0.000000	14.466148	-4.865236	2.026341	4.870450	-17.451661	65.880300	21.084122	43.865983	-11.275097	-7.944355	42.503369	13.481279	30.154960	142.281947	84.727534	10.210815	13.138113
2.250000	9.305339	-8.930570	116.154072	0.174441	0.361990	0.696924	1.203955	4.769132	-26.012073	7.987143	0.139402	29.248954	10.981956	0.000000	4.051607	-8.632948	13.454126	10.676384	0.186338	36.467854	-2.297446	0.000000	-0.034418	1.259380	-0.153638	-0.063918	1.674975	-0.163240	-0.056545	3.062056	-0.163240	-0.039336	3.062056	-0.134433	-0.031961	2.568127	-0.124831	-0.019666	1.950779	-0.115229	-0.245845	14.246357	-0.854489	0.000000	0.000000	14.024931	-4.903879	1.983535	4.623481	-17.505007	65.234600	21.066655	44.596136	-11.393403	-7.908558	42.136915	13.031610	29.863605	141.931765	84.470253	9.173600	12.646997
2.275000	9.209337	-8.838402	116.549917	0.173465	0.362281	0.696605	1.078873	4.663517	-26.876739	8.084269	0.141097	29.514327	11.522345	0.000000	3.972405	-8.513493	13.931485	10.609429	0.185169	36.529099	-2.200630	0.000000	-0.034304	1.258861	-0.164951	-0.063707	1.674285	-0.175261	-0.056359	3.060794	-0.175261	-0.039207	3.060794	-0.144332	-0.031855	2.567069	-0.134023	-0.019602	1.949975	-0.123713	-0.245033	14.240484	-0.917409	0.000000	0.000000	13.648807	-4.866990	1.908313	4.574053	-17.556241	65.623860	21.091656	44.597520	-11.562838	-7.902230	41.754066	12.677015	29.693266	141.630067	84.346484	8.053812	12.241087
2.300000	9.110929	-8.795441	116.916052	0.172604	0.362594	0.696219	0.985337	4.566141	-27.397926	8.132177	0.141933	29.699122	11.768784	0.000000	3.928960	-8.384118	14.257598	10.522771	0.183657	36.544988	-1.889999	0.000000	-0.030413	1.253380	-0.167326	-0.056481	1.666995	-0.177784	-0.049966	3.047468	-0.177784	-0.034759	3.047468	-0.146410	-0.028242	2.555892	-0.135952	-0.017378	1.941485	-0.125494	-0.217240	14.178483	-0.930615	0.000000	0.000000	13.371117	-4.742602	1.779705	4.707195	-17.607214	66.950841	21.166763	43.859704	-11.719024	-7.968946	41.376183	12.433730	29.717032	141.375603	84.335974	6.809542	11.862199
2.325000	9.009454	-8.799388	117.268041	0.171832	0.362931	0.695772	0.917918	4.471433	-27.647216	8.129340	0.141884	29.808253	11.772015	0.000000	3.924177	-8.242754	14.460221	10.421101	0.181883	36.515354	-1.389762	0.000000	-0.023376	1.243238	-0.169295	-0.043412	1.653506	-0.179876	-0.038404	3.022808	-0.179876	-0.026716	3.022808	-0.148133	-0.021707	2.535211	-0.137552	-0.013357	1.925775	-0.126971	-0.166973	14.063755	-0.941566	0.000000	0.000000	13.188745	-4.541558	1.618604	5.046970	-17.651326	69.205825	21.315760	42.590689	-11.970034	-8.045883	41.025952	12.321667	29.899218	141.203712	84.455849	5.595937	11.632798
2.350000	8.892424	-8.855831	117.543609	0.171242	0.363296	0.695241	0.880378	4.363382	-27.621169	8.083314	0.141080	29.837231	11.553344	0.000000	3.943198	-8.081264	14.452414	10.306326	0.179879	36.448130	-0.710590	0.000000	-0.015453	1.226746	-0.161264	-0.028698	1.631572	-0.171343	-0.025388	2.982709	-0.171343	-0.017662	2.982709	-0.141106	-0.014350	2.501580	-0.131027	-0.008830	1.900229	-0.120948	-0.110382	13.877191	-0.896904	0.000000	0.000000	13.150853	-4.279927	1.423297	5.567602	-17.648182	72.243950	21.480674	40.891287	-12.338754	-8.085151	40.730422	12.349176	30.248953	141.092233	84.669723	4.529565	11.436525
2.375000	8.793974	-8.965119	117.803144	0.170710	0.363626	0.694602	0.876339	4.295585	-27.085105	7.956588	0.138869	29.716766	10.684109	0.000000	4.009888	-7.929237	14.303647	10.174915	0.177586	36.381052	0.137291	0.000000	-0.001286	1.208157	-0.162145	-0.002388	1.606849	-0.172279	-0.002112	2.937514	-0.172279	-0.001469	2.937514	-0.141877	-0.001194	2.463674	-0.131743	-0.000735	1.871436	-0.121609	-0.009183	13.666916	-0.901800	0.000000	0.000000	13.181854	-4.008015	1.217668	6.204637	-17.651838	75.671844	21.690431	39.172034	-12.801167	-8.065706	40.468219	12.487945	30.762649	141.056842	85.037299	3.550658	11.260616
2.400000	8.712531	-9.122429	118.008766	0.170260	0.363911	0.693866	0.908436	4.239258	-26.332076	7.794532	0.136040	29.512669	9.555487	0.000000	4.114599	-7.783652	13.995386	10.042190	0.175269	36.335434	1.091574	0.000000	0.016936	1.188002	-0.173529	0.031452	1.580042	-0.184375	0.027824	2.888508	-0.184375	0.019356	2.888508	-0.151838	0.015727	2.422573	-0.140993	0.009677	1.840215	-0.130147	0.120972	13.438914	-0.965118	0.000000	0.000000	13.285878	-3.761098	1.007933	7.007614	-17.621417	79.790912	21.916308	37.060702	-13.326376	-8.059561	40.246952	12.724367	31.343740	141.104755	85.509635	2.839864	11.241926
2.425000	8.659592	-9.341329	118.164856	0.169823	0.364111	0.693092	1.024355	4.141360	-25.994168	7.691825	0.134248	29.397369	8.993831	0.000000	4.275857	-7.633042	13.649955	9.907203	0.172913	36.294104	1.969688	0.000000	0.040948	1.168723	-0.200538	0.076045	1.554402	-0.213071	0.067274	2.841634	-0.213071	0.046800	2.841634	-0.175471	0.038025	2.383260	-0.162937	0.023398	1.810352	-0.150403	0.292490	13.220830	-1.115331	0.000000	0.000000	13.498741	-3.587925	0.842824	7.916303	-17.595517	84.191911	22.170931	34.953522	-13.863431	-7.985963	40.077377	13.009512	32.016946	141.262556	86.076087	2.111034	11.448629
2.450000	8.642941	-9.603945	118.285419	0.169398	0.364228	0.692306	1.197723	4.038292	-25.794981	7.612167	0.132857	29.274803	8.569146	0.000000	4.492949	-7.497504	13.232785	9.794617	0.170948	36.283256	2.820635	0.000000	0.069562	1.152350	-0.246278	0.129184	1.532625	-0.261671	0.114284	2.801823	-0.261671	0.079503	2.801823	-0.215493	0.064595	2.349872	-0.200101	0.039748	1.784990	-0.184709	0.496875	13.035611	-1.369725	0.000000	0.000000	13.788853	-3.504549	0.710190	8.950800	-17.542375	89.096933	22.415881	32.529084	-14.341543	-7.927953	39.952105	13.322646	32.693528	141.498885	86.687989	1.469927	11.831594
2.475000	8.658908	-9.886341	118.334089	0.169029	0.364281	0.691534	1.412232	3.937249	-25.656232	7.570203	0.132125	29.141836	8.224415	0.000000	4.732387	-7.388285	12.710411	9.708273	0.169441	36.299345	3.629303	0.000000	0.099559	1.140346	-0.297523	0.184892	1.516660	-0.316118	0.163566	2.772638	-0.316118	0.113787	2.772638	-0.260333	0.092451	2.325394	-0.241737	0.056888	1.766396	-0.223142	0.711143	12.899824	-1.654733	0.000000	0.000000	14.101562	-3.503450	0.616287	10.076261	-17.483421	94.383203	22.649064	29.791938	-14.769229	-7.883207	39.855754	13.650322	33.307702	141.803585	87.345766	0.962295	12.412592
2.500000	8.703177	-10.166556	118.330528	0.168665	0.364273	0.690876	1.649789	3.825534	-25.793785	7.579125	0.132281	29.044957	8.232167	0.000000	4.970021	-7.287674	12.369073	9.639474	0.168241	36.264697	4.058301	0.000000	0.128429	1.134270	-0.345855	0.238505	1.508579	-0.367471	0.210996	2.757865	-0.367471	0.146781	2.757865	-0.302623	0.119259	2.313004	-0.281008	0.073384	1.756985	-0.259392	0.917355	12.831092	-1.923544	0.000000	0.000000	14.421864	-3.581988	0.568033	11.108793	-17.450320	99.038754	22.975484	27.483602	-15.125508	-7.722988	39.783907	13.962009	33.898767	142.124583	87.883106	0.408061	13.034368
